<svg class="mo-logo__long" xmlns="http://www.w3.org/2000/svg" xmlns:xlink="http://www.w3.org/1999/xlink" version="1.1" viewBox="0 0 998.92 180">
  <title>wantable logo</title>
  <g id="logo-long">
    <path class="cls-1" shape-rendering="geometricPrecision" d="M135.18,98.44V60.82a12,12,0,1,0-12,12h0a12.15,12.15,0,0,0,2.94-.37v28.81A10.72,10.72,0,0,1,115.52,112h0a10.59,10.59,0,0,1-6.48-2.16.27.27,0,0,1-.11-.1l-.39-.3a8.68,8.68,0,0,1-1.23-1.27l-.41-.51-.12-.17a10.64,10.64,0,0,1-2-6.14V60.82a12,12,0,0,0-12-12h0a12,12,0,0,0-11.94,12h0v45.1a6.43,6.43,0,0,1-6.43,6.44h0a6.45,6.45,0,0,1-6.44-6.44V61.44a12,12,0,0,0-11.93-12h0a12,12,0,0,0-12,12v49.28a20.42,20.42,0,0,0,20.38,20.46h0a20.37,20.37,0,0,0,19.61-14.9A27.09,27.09,0,0,0,108,130.67h0a27.18,27.18,0,0,0,27.14-27.22v0Z"/>
    <path class="cls-1" shape-rendering="geometricPrecision" d="M89.65,180C40.14,180,0,139.71,0,90S40.14,0,89.65,0s89.66,40.29,89.66,90h0C179.25,139.68,139.14,180,89.65,180Zm0-164.82A74.84,74.84,0,1,0,164.2,90h0A74.77,74.77,0,0,0,89.65,15.18Z"/>
    <path class="cls-1" shape-rendering="geometricPrecision" d="M217,64.06a10.1,10.1,0,0,1-.63-3,7.85,7.85,0,0,1,8-7.71h.11a8,8,0,0,1,7.7,5.66l14.25,44.17,14.36-43.76c1.23-3.71,4-6.28,8-6.28H270c4,0,6.77,2.48,8,6.28l14.35,43.76L306.62,59a7.9,7.9,0,0,1,7.59-5.66A7.63,7.63,0,0,1,322,60.82V61a10.48,10.48,0,0,1-.62,3.08l-20.12,56.63c-1.38,4-4.42,6.48-8.21,6.48h-1.63c-3.8,0-6.68-2.37-8.1-6.48L269.15,79.41,255,120.69c-1.38,4.17-4.3,6.48-8.1,6.48h-1.63c-3.8,0-6.77-2.48-8.21-6.48Z"/>
    <path class="cls-1" shape-rendering="geometricPrecision" d="M349.53,115.84l25-56.71a9.7,9.7,0,0,1,9.22-6.3h.93a9.6,9.6,0,0,1,9.12,6.29l25,56.71a7.7,7.7,0,0,1,.82,3.19,7.49,7.49,0,0,1-7.36,7.62h-.12c-3.69,0-6.16-2.16-7.58-5.45l-4.82-11.37h-31.6l-5,11.84a7.76,7.76,0,0,1-7.32,5,7.27,7.27,0,0,1-7.29-7.25v-.16A8.42,8.42,0,0,1,349.53,115.84Zm44.4-19.92L384,72.14l-9.94,23.78Z"/>
    <path class="cls-1" shape-rendering="geometricPrecision" d="M457.71,61.49a7.83,7.83,0,0,1,7.75-7.92h1.79c3.79,0,6.05,1.85,8.19,4.63L505.9,98.34V61.17a7.8,7.8,0,1,1,15.59,0v57.35a7.84,7.84,0,0,1-7.78,7.92.24.24,0,0,1-.12,0h-.51c-3.8,0-6.05-1.84-8.2-4.62L473.3,80.23v38.6a7.8,7.8,0,1,1-15.59,0Z"/>
    <path class="cls-1" shape-rendering="geometricPrecision" d="M581.05,68.59H565.82a7.31,7.31,0,0,1,0-14.62H612a7.31,7.31,0,0,1,0,14.62H596.77v50.14a7.9,7.9,0,0,1-15.79,0Z"/>
    <path class="cls-1" shape-rendering="geometricPrecision" d="M644.72,115.84l25-56.71a9.7,9.7,0,0,1,9.24-6.3h.87A9.62,9.62,0,0,1,689,59.12l25,56.71a7.85,7.85,0,0,1,.82,3.19,7.5,7.5,0,0,1-7.37,7.62h-.13c-3.68,0-6.14-2.16-7.58-5.45L695,109.82H663.39l-5,11.84a7.75,7.75,0,0,1-7.28,4.94,7.29,7.29,0,0,1-7.23-7.34v0A8.55,8.55,0,0,1,644.72,115.84Zm44.41-19.92-10-23.78-9.94,23.78Z"/>
    <path class="cls-1" shape-rendering="geometricPrecision" d="M752.89,61.89A7.85,7.85,0,0,1,760.67,54h25.55c8.21,0,14.67,2.27,18.77,6.38a16.56,16.56,0,0,1,4.92,12.26v.21c0,8.13-4.31,12.66-9.43,15.54,8.3,3.2,13.43,8,13.43,17.71v.21c0,13.17-10.66,19.76-26.86,19.76H760.74a7.85,7.85,0,0,1-7.85-7.85V61.89Zm30,21.22c6.92,0,11.38-2.27,11.38-7.62v-.21c0-4.73-3.7-7.41-10.36-7.41H768.27V83.16Zm4.15,29c6.92,0,11.17-2.47,11.17-7.82v-.21c0-4.84-3.58-7.83-11.68-7.83H768.27v15.86Z"/>
    <path class="cls-1" shape-rendering="geometricPrecision" d="M852.55,61.28a7.91,7.91,0,0,1,15.8,0v50.35h29.21a7.21,7.21,0,0,1,.63,14.41H860.44a7.85,7.85,0,0,1-7.89-7.81V61.28Z"/>
    <path class="cls-1" shape-rendering="geometricPrecision" d="M941.65,118.16V61.89A7.85,7.85,0,0,1,949.43,54h39.91a7.11,7.11,0,0,1,7.07,7.1A7,7,0,0,1,989.34,68h-32V82.7h27.38a7.11,7.11,0,0,1,7.08,7.11,7,7,0,0,1-7.08,7H957.34v15.17h32.51a7.12,7.12,0,0,1,7.07,7.11,7,7,0,0,1-7.07,6.95H949.54a7.85,7.85,0,0,1-7.89-7.82Z"/>
  </g>
</svg>
